<svg width="50" height="50" viewBox="0 0 50 50" fill="none" xmlns="http://www.w3.org/2000/svg">
<path d="M32.0366 34.9595H17.9663V45.5392H32.0366V34.9595Z" fill="#415E72"/>
<path d="M17.9663 36.7891H26.3366L17.9663 42.4437V36.7891Z" fill="#2C3E50"/>
<path d="M36.0861 47.5859H13.9158C13.0541 47.5836 12.3556 46.8852 12.3533 46.0234C12.3556 45.1617 13.0541 44.4633 13.9158 44.4609H36.0845C36.9462 44.4633 37.6447 45.1617 37.647 46.0234C37.647 46.8859 36.9486 47.5852 36.0861 47.5859Z" fill="#CFDCE5"/>
<path d="M46.875 36.7891H3.125C1.40156 36.7836 0.00546875 35.3875 0 33.6641V5.53906C0.00546875 3.81562 1.40156 2.41953 3.125 2.41406H46.875C48.5984 2.41953 49.9945 3.81562 50 5.53906V33.6641C49.9945 35.3875 48.5984 36.7836 46.875 36.7891Z" fill="#CFDCE5"/>
<path d="M47.8562 4.55627H2.14526V34.6469H47.8562V4.55627Z" fill="white"/>
<path d="M34.2528 7.21802H15.7893V31.9039H34.2528V7.21802Z" fill="white"/>
<path d="M34.0544 7.41393V31.708H15.9851V7.41393H34.0544ZM34.4462 7.02209H15.5933V32.0998H34.4466V7.02209H34.4462Z" fill="#C7D5DD"/>
<path d="M22.6108 14.7574H21.4062V18.0516H22.6108V14.7574Z" fill="#E04F5F"/>
<path d="M20.6037 16.1049H19.3992V18.0523H20.6037V16.1049Z" fill="#29414F"/>
<path d="M24.6186 12.9271H23.4141V18.0524H24.6186V12.9271Z" fill="#29414F"/>
<path d="M26.6239 9.63208H25.4194V18.0515H26.6239V9.63208Z" fill="#E04F5F"/>
<path d="M28.634 11.3311H27.4294V18.0511H28.634V11.3311Z" fill="#29414F"/>
<path d="M30.6403 14.0369H29.4358V18.0634H30.6403V14.0369Z" fill="#E04F5F"/>
<path d="M24.647 20.7412C22.2314 20.7412 20.2729 22.6996 20.2729 25.1153C20.2729 27.531 22.2314 29.4894 24.647 29.4894C27.0616 29.4894 29.0196 27.5326 29.0211 25.1181H24.647V20.7412Z" fill="#32BEA6"/>
<path d="M28.4864 21.2784L25.3909 24.374H29.7661V24.3704C29.7677 23.2106 29.3073 22.0982 28.4864 21.2784Z" fill="#25B6D2"/>
<path d="M25.3921 19.9963V24.374L28.4876 21.2784C27.6679 20.4556 26.5535 19.994 25.3921 19.9963Z" fill="#CFDCE5"/>
</svg>
