<svg width="15" height="15" viewBox="0 0 15 15" fill="none" xmlns="http://www.w3.org/2000/svg">
<g clip-path="url(#clip0)">
<path d="M14.7444 1.31534C14.8855 1.31534 14.9999 1.20094 14.9999 1.05984V0.255498C14.9999 0.114404 14.8856 0 14.7444 0H3.1825C3.04141 0 2.927 0.114404 2.927 0.255498V11.8173C2.927 11.9584 3.04141 12.0728 3.1825 12.0728H14.7444C14.8855 12.0728 14.9999 11.9584 14.9999 11.8173V1.91147C14.9999 1.77038 14.8855 1.65597 14.7444 1.65597C14.6032 1.65597 14.4889 1.77038 14.4889 1.91147V6.28888H13.4742C13.3331 6.28888 13.2187 6.40329 13.2187 6.54438C13.2187 6.68548 13.333 6.79988 13.4742 6.79988H14.4889V11.5619H7.18914V10.3256C7.18914 10.1845 7.07473 10.0701 6.93364 10.0701C6.79254 10.0701 6.67814 10.1845 6.67814 10.3256V11.5619H3.438V0.510995H6.67817V8.48612C6.67817 8.62721 6.79257 8.74161 6.93367 8.74161C7.07476 8.74161 7.18917 8.62721 7.18917 8.48612V6.79988H11.7369C11.878 6.79988 11.9924 6.68548 11.9924 6.54438C11.9924 6.40329 11.878 6.28888 11.7369 6.28888H7.18914V0.510995H14.4889V1.05984C14.4889 1.20094 14.6033 1.31534 14.7444 1.31534Z" fill="#3D3D3D"/>
<path d="M2.1588 1.47454L1.31572 0.120469C1.26908 0.0455566 1.18705 0 1.09884 0C1.0106 0 0.928594 0.0455566 0.881953 0.120469L0.0388495 1.47454C-0.0101934 1.55332 -0.0126836 1.65249 0.0323749 1.73361C0.0774334 1.81473 0.162951 1.86506 0.255734 1.86506H0.84334V2.93346C0.84334 3.07455 0.957744 3.18896 1.09884 3.18896C1.23993 3.18896 1.35434 3.07455 1.35434 2.93346V1.86506H1.94194C2.03472 1.86506 2.12024 1.81476 2.1653 1.73361C2.21036 1.65246 2.20787 1.55329 2.1588 1.47454ZM0.715782 1.35407L1.09881 0.738895L1.48184 1.35407H0.715782Z" fill="#3D3D3D"/>
<path d="M2.16503 10.3393C2.11997 10.2581 2.03445 10.2078 1.94167 10.2078H1.35406V3.61475C1.35406 3.47366 1.23966 3.35925 1.09856 3.35925C0.957471 3.35925 0.843067 3.47366 0.843067 3.61475V10.2078H0.25549C0.162707 10.2078 0.0771893 10.2581 0.0321308 10.3393C-0.0129277 10.4204 -0.0104375 10.5196 0.0386054 10.5983L0.88168 11.9524C0.92832 12.0273 1.01032 12.0729 1.09856 12.0729C1.18684 12.0729 1.26884 12.0273 1.31545 11.9524L2.15852 10.5983C2.20762 10.5195 2.21011 10.4204 2.16503 10.3393ZM1.09859 11.334L0.715538 10.7188H1.48159L1.09859 11.334Z" fill="#3D3D3D"/>
<path d="M14.8794 13.6845L13.5254 12.8415C13.4466 12.7924 13.3474 12.7899 13.2663 12.835C13.1852 12.88 13.1349 12.9656 13.1349 13.0583V13.6459H4.79207V13.0583C4.79207 12.9656 4.74177 12.88 4.66064 12.835C4.57952 12.7899 4.48038 12.7924 4.40154 12.8415L3.04747 13.6845C2.97256 13.7312 2.927 13.8132 2.927 13.9014C2.927 13.9897 2.97256 14.0717 3.04747 14.1183L4.40154 14.9614C4.44279 14.9871 4.48967 15 4.53657 15C4.57926 15 4.62197 14.9893 4.66061 14.9678C4.74177 14.9228 4.79207 14.8373 4.79207 14.7445V14.1569H13.1348V14.7445C13.1348 14.8373 13.1852 14.9228 13.2663 14.9678C13.3049 14.9893 13.3477 15 13.3903 15C13.4372 15 13.4841 14.987 13.5254 14.9614L14.8794 14.1183C14.9544 14.0717 14.9999 13.9897 14.9999 13.9014C14.9999 13.8131 14.9544 13.7312 14.8794 13.6845ZM4.28107 14.2844L3.6659 13.9014L4.28107 13.5184V14.2844ZM13.6458 14.2844V13.5184L14.2611 13.9014L13.6458 14.2844Z" fill="#3D3D3D"/>
</g>
<defs>
<clipPath id="clip0">
<rect width="15" height="15" fill="white"/>
</clipPath>
</defs>
</svg>
