<svg width="15" height="15" viewBox="0 0 15 15" fill="none" xmlns="http://www.w3.org/2000/svg">
<path d="M14.7774 5.79585C14.6338 5.65226 14.4432 5.57325 14.2404 5.57325H10.3577C10.2202 5.57325 10.1088 5.68472 10.1088 5.82221C10.1088 5.9597 10.2202 6.07118 10.3577 6.07118H14.2404C14.3101 6.07118 14.3758 6.09842 14.4253 6.14793C14.4748 6.19748 14.502 6.26316 14.502 6.33286C14.502 6.47714 14.3846 6.59454 14.2404 6.59454H0.759609C0.689678 6.59454 0.623965 6.56741 0.574717 6.51813C0.525234 6.46865 0.49793 6.40282 0.49793 6.33283C0.49793 6.18854 0.615322 6.07115 0.759609 6.07115H9.52787C9.66539 6.07115 9.77684 5.95967 9.77684 5.82218C9.77684 5.68469 9.66539 5.57322 9.52787 5.57322H2.05564V4.0482C2.05564 3.94182 2.14201 3.85528 2.24821 3.85528C2.35459 3.85528 2.44113 3.94182 2.44113 4.0482V4.7522C2.44113 4.88969 2.55261 5.00117 2.6901 5.00117H3.54952C3.68701 5.00117 3.79849 4.88969 3.79849 4.7522V4.0482C3.79849 3.19337 3.10304 2.49792 2.24821 2.49792C1.39356 2.49792 0.698291 3.1934 0.698291 4.0482V4.74207H0.460254C0.322764 4.74207 0.211289 4.85354 0.211289 4.99103V5.80794C0.0805664 5.94447 0 6.12936 0 6.33286C0 6.53585 0.079043 6.72669 0.222598 6.87022C0.351357 6.99898 0.518467 7.07524 0.698291 7.08948V7.86834C0.698291 8.16605 0.735615 8.46198 0.80915 8.74789C0.838066 8.86021 0.93917 8.93489 1.05009 8.93489C1.07062 8.93489 1.09151 8.93234 1.11231 8.92695C1.24547 8.8927 1.32562 8.75697 1.29138 8.62381C1.22824 8.37842 1.19625 8.12427 1.19625 7.86839V7.09244H13.8038V7.86834C13.8038 8.90322 13.2828 9.85513 12.4101 10.4147C12.0191 10.6654 11.5866 10.819 11.1242 10.8711C11.0115 10.884 10.8961 10.8905 10.7812 10.8905H4.21875C4.10394 10.8905 3.98851 10.884 3.87519 10.871C3.39519 10.8171 2.92969 10.6455 2.52902 10.3746C2.15314 10.1207 1.8339 9.77955 1.60567 9.38823C1.53639 9.26943 1.38393 9.22932 1.26519 9.29858C1.14642 9.36787 1.10628 9.5203 1.17554 9.63907C1.41343 10.0469 1.73643 10.4077 2.11538 10.6909L1.81008 12.2037C1.79531 12.2769 1.81415 12.3529 1.86144 12.4107C1.90872 12.4685 1.97944 12.502 2.05409 12.502H2.75238C2.81924 12.502 2.88328 12.4751 2.9301 12.4274L3.95915 11.3786C4.04537 11.3849 4.13221 11.3885 4.21878 11.3885H10.7812C10.8678 11.3885 10.9547 11.385 11.0408 11.3786L12.0699 12.4274C12.1167 12.4751 12.1807 12.502 12.2476 12.502H12.9459C13.0205 12.502 13.0913 12.4685 13.1385 12.4107C13.1858 12.3529 13.2047 12.277 13.1899 12.2037L12.8846 10.6911C13.7762 10.0274 14.3017 8.98988 14.3017 7.86837V7.0898C14.6919 7.05842 15 6.73103 15 6.33286C15 6.13015 14.921 5.93946 14.7774 5.79585ZM1.19622 4.04823C1.19622 3.46797 1.66813 2.99588 2.24821 2.99588C2.82847 2.99588 3.30056 3.46797 3.30056 4.04823V4.50327H2.93906V4.04823C2.93906 3.66728 2.62916 3.35738 2.24821 3.35738C1.86747 3.35738 1.55771 3.66728 1.55771 4.04823V4.7421H1.19622V4.04823ZM0.709219 5.24002H1.55771V5.57325H0.709219V5.24002ZM2.64788 12.0041H2.35831L2.5657 10.9764C2.8161 11.1095 3.08232 11.2121 3.35695 11.2814L2.64788 12.0041ZM12.3521 12.0041L11.6429 11.2813C11.9177 11.2119 12.1842 11.1094 12.4343 10.9766L12.6416 12.0041H12.3521V12.0041Z" fill="#3D3D3D"/>
</svg>
