<svg width="15" height="15" viewBox="0 0 15 15" fill="none" xmlns="http://www.w3.org/2000/svg">
<g clip-path="url(#clip0)">
<path d="M14.7496 5.76172H13.2586C13.1203 5.76172 13.0081 5.87384 13.0081 6.01215V7.41022C12.7102 7.12018 12.3039 6.94106 11.8562 6.94106H8.1771C8.25189 6.82355 8.32414 6.70376 8.39269 6.5818C8.43552 6.50557 8.43552 6.41252 8.39266 6.33632C7.72713 5.15322 6.78977 4.21586 5.60664 3.5503C5.53041 3.50738 5.43731 3.50738 5.36105 3.5503C4.17766 4.21624 3.24042 5.15363 2.57538 6.33635C2.53254 6.41255 2.53254 6.50557 2.57538 6.5818C2.65043 6.7153 2.72954 6.84649 2.81201 6.97455C2.4968 7.03906 2.2142 7.19384 1.9919 7.41022V2.40985C1.9919 2.27154 1.87978 2.15942 1.74147 2.15942H0.25043C0.112119 2.15942 0 2.27154 0 2.40985V3.58443C0 3.72274 0.112119 3.83486 0.25043 3.83486C0.388741 3.83486 0.50086 3.72274 0.50086 3.58443V2.66028H1.49104V12.3397H0.50086V4.51938C0.50086 4.38107 0.388741 4.26895 0.25043 4.26895C0.112119 4.26895 0 4.38107 0 4.51938V12.5901C0 12.7284 0.112119 12.8406 0.25043 12.8406H1.74147C1.87978 12.8406 1.9919 12.7284 1.9919 12.5901V11.7608H13.0081V12.5901C13.0081 12.7284 13.1203 12.8406 13.2586 12.8406H14.7496C14.8879 12.8406 15 12.7284 15 12.5901V6.01215C15 5.87384 14.8879 5.76172 14.7496 5.76172ZM5.48389 4.05751C6.48757 4.64855 7.29447 5.45547 7.8855 6.45913C7.78786 6.62501 7.68359 6.78611 7.57452 6.94106H3.39358C3.28448 6.78611 3.18018 6.62498 3.08254 6.4591C3.67313 5.45577 4.47994 4.64887 5.48389 4.05751ZM13.0081 11.26H1.9919V8.88158H10.8682C11.0065 8.88158 11.1186 8.76946 11.1186 8.63115C11.1186 8.49283 11.0065 8.38071 10.8682 8.38071H2.01164C2.11187 7.84704 2.58141 7.44192 3.1438 7.44192H11.8562C12.4186 7.44192 12.8881 7.84701 12.9884 8.38071H11.7029C11.5646 8.38071 11.4525 8.49283 11.4525 8.63115C11.4525 8.76946 11.5646 8.88158 11.7029 8.88158H13.0081V11.26H13.0081ZM14.4992 12.3397H13.509V6.26258H14.4992V12.3397Z" fill="#3D3D3D"/>
</g>
<defs>
<clipPath id="clip0">
<rect width="15" height="15" fill="white"/>
</clipPath>
</defs>
</svg>
