<svg width="15" height="15" viewBox="0 0 15 15" fill="none" xmlns="http://www.w3.org/2000/svg">
<g clip-path="url(#clip0)">
<path d="M14.8411 3.77914L10.8268 2.21351C10.6984 2.16345 10.5538 2.22696 10.5037 2.35525C10.4537 2.4836 10.5171 2.62824 10.6454 2.67825L13.2574 3.69693C13.2572 3.70112 13.2568 3.70525 13.2568 3.70947V4.17174H4.49162C4.35384 4.17174 4.24219 4.28342 4.24219 4.42118C4.24219 4.55893 4.35384 4.67061 4.49162 4.67061H13.2568V5.20117H11.6253C11.4875 5.20117 11.3758 5.31285 11.3758 5.45061C11.3758 5.58836 11.4875 5.70004 11.6253 5.70004H13.2568V6.23061H1.74323V5.70004H10.7938C10.9316 5.70004 11.0432 5.58836 11.0432 5.45061C11.0432 5.31285 10.9316 5.20117 10.7938 5.20117H1.74323V4.67061H3.66018C3.79796 4.67061 3.90961 4.55893 3.90961 4.42118C3.90961 4.28342 3.79796 4.17174 3.66018 4.17174H1.74323V3.70947C1.74323 3.70525 1.74279 3.70112 1.74259 3.69693L7.50003 1.45147L9.69571 2.30782C9.82408 2.35789 9.96869 2.29437 10.0188 2.16608C10.0688 2.03773 10.0053 1.89309 9.87702 1.84308L7.59073 0.951377C7.5324 0.928643 7.46777 0.928643 7.40944 0.951377L0.158858 3.77914C0.030538 3.8292 -0.0329482 3.97384 0.01712 4.10213C0.0555575 4.20072 0.149776 4.26101 0.249561 4.26101C0.279707 4.26101 0.310352 4.2555 0.340147 4.24387L1.24431 3.89125V9.95344C1.24431 10.0912 1.35596 10.2029 1.49374 10.2029C1.63152 10.2029 1.74317 10.0912 1.74317 9.95344V6.72959H13.2567V13.5668H11.2748V12.9892H11.624C11.7618 12.9892 11.8734 12.8776 11.8734 12.7398V11.9416C11.8734 11.8038 11.7618 11.6921 11.624 11.6921H11.4411V10.0445C11.4411 9.7752 11.3066 9.53681 11.1015 9.39249L11.2873 9.20672H11.6905C11.8283 9.20672 11.9399 9.09504 11.9399 8.95729C11.9399 8.81954 11.8283 8.70786 11.6905 8.70786H11.184C11.1178 8.70786 11.0544 8.73414 11.0076 8.78092L10.5813 9.20722L10.3089 8.05272C10.2114 7.64008 9.84735 7.35188 9.42342 7.35188H5.50998C5.08603 7.35188 4.72193 7.64008 4.62451 8.05272L4.36477 9.15337L3.99235 8.78089C3.94556 8.73411 3.88213 8.70783 3.81595 8.70783H3.30941C3.17163 8.70783 3.05998 8.81951 3.05998 8.95726C3.05998 9.09501 3.17163 9.20669 3.30941 9.20669H3.71265L3.89842 9.39246C3.69328 9.53678 3.55884 9.77514 3.55884 10.0445V11.6921H3.37591C3.23813 11.6921 3.12648 11.8038 3.12648 11.9416V12.7398C3.12648 12.8775 3.23813 12.9892 3.37591 12.9892H3.72513V13.5668H1.74323V10.7849C1.74323 10.6472 1.63158 10.5355 1.4938 10.5355C1.35601 10.5355 1.24436 10.6472 1.24436 10.7849V13.5668H0.505791C0.368008 13.5668 0.256358 13.6784 0.256358 13.8162C0.256358 13.954 0.368008 14.0656 0.505791 14.0656H14.4942C14.632 14.0656 14.7436 13.954 14.7436 13.8162C14.7436 13.6784 14.632 13.5668 14.4942 13.5668H13.7557V3.89128L14.6599 4.24393C14.6897 4.25553 14.7203 4.26107 14.7505 4.26107C14.8503 4.26107 14.9445 4.20078 14.9829 4.10219C15.0329 3.97381 14.9695 3.82917 14.8411 3.77914ZM5.11005 8.16727C5.15402 7.98089 5.3185 7.85075 5.50995 7.85075H9.42342C9.61491 7.85075 9.77932 7.98092 9.82329 8.16727L10.0783 9.24762H4.85508L5.11005 8.16727ZM3.62529 12.4903V12.191H5.25648C5.39426 12.191 5.50591 12.0793 5.50591 11.9416C5.50591 11.8038 5.39426 11.6921 5.25648 11.6921H4.05765V10.0445C4.05765 9.8802 4.19136 9.74649 4.35566 9.74649H10.6442C10.8085 9.74649 10.9422 9.8802 10.9422 10.0445V11.6921H6.08795C5.95017 11.6921 5.83852 11.8038 5.83852 11.9416C5.83852 12.0793 5.95017 12.191 6.08795 12.191H11.3746V12.4903H3.62529ZM4.98891 13.5668H4.22397V12.9892H4.98891V13.5668ZM9.5121 13.5668H5.4878V12.9892H9.5121V13.5668ZM10.7759 13.5668H10.011V12.9892H10.7759V13.5668Z" fill="#3D3D3D"/>
<path d="M5.07216 9.91284C4.62283 9.91284 4.25732 10.2784 4.25732 10.7277C4.25732 11.177 4.62283 11.5425 5.07216 11.5425C5.52148 11.5425 5.88699 11.177 5.88699 10.7277C5.88699 10.2784 5.52148 9.91284 5.07216 9.91284ZM5.07216 11.0436C4.89796 11.0436 4.75619 10.9019 4.75619 10.7277C4.75619 10.5534 4.89793 10.4117 5.07216 10.4117C5.24636 10.4117 5.38812 10.5534 5.38812 10.7277C5.38812 10.9019 5.24638 11.0436 5.07216 11.0436Z" fill="#3D3D3D"/>
<path d="M9.92787 9.91284C9.47854 9.91284 9.11304 10.2784 9.11304 10.7277C9.11304 11.177 9.47854 11.5425 9.92787 11.5425C10.3772 11.5425 10.7427 11.177 10.7427 10.7277C10.7427 10.2784 10.3772 9.91284 9.92787 9.91284ZM9.92787 11.0436C9.75367 11.0436 9.6119 10.9019 9.6119 10.7277C9.6119 10.5534 9.75364 10.4117 9.92787 10.4117C10.1021 10.4117 10.2438 10.5534 10.2438 10.7277C10.2438 10.9019 10.1021 11.0436 9.92787 11.0436Z" fill="#3D3D3D"/>
</g>
<defs>
<clipPath id="clip0">
<rect width="15" height="15" fill="white"/>
</clipPath>
</defs>
</svg>
