<svg width="50" height="50" viewBox="0 0 50 50" fill="none" xmlns="http://www.w3.org/2000/svg">
<path d="M32.0366 34.9594H17.9663V45.5391H32.0366V34.9594Z" fill="#415E72"/>
<path d="M17.9663 36.7891H26.3366L17.9663 42.4438V36.7891Z" fill="#2C3E50"/>
<path d="M36.0861 47.5859H13.9158C13.0541 47.5836 12.3556 46.8851 12.3533 46.0234C12.3556 45.1617 13.0541 44.4633 13.9158 44.4609H36.0845C36.9462 44.4633 37.6447 45.1617 37.647 46.0234C37.647 46.8859 36.9486 47.5851 36.0861 47.5859Z" fill="#CFDCE5"/>
<path d="M46.875 36.7891H3.125C1.40156 36.7836 0.00546875 35.3875 0 33.6641V5.53909C0.00546875 3.81566 1.40156 2.41956 3.125 2.41409H46.875C48.5984 2.41956 49.9945 3.81566 50 5.53909V33.6641C49.9945 35.3875 48.5984 36.7836 46.875 36.7891Z" fill="#CFDCE5"/>
<path d="M47.8562 4.55624H2.14526V34.6469H47.8562V4.55624Z" fill="white"/>
<path d="M32.3264 24.0454L30.1211 26.2595L36.7283 32.8406L38.9337 30.6266L32.3264 24.0454Z" fill="#25B6D2"/>
<path d="M23.7094 29.3907C30.084 29.3907 35.2516 24.2262 35.2516 17.8555C35.2516 11.4848 30.084 6.32034 23.7094 6.32034C17.3348 6.32034 12.1672 11.4848 12.1672 17.8555C12.1672 24.2262 17.3348 29.3907 23.7094 29.3907Z" fill="#415E72"/>
<path d="M23.7094 27.4578C29.0161 27.4578 33.318 23.1587 33.318 17.8555C33.318 12.5522 29.0161 8.25311 23.7094 8.25311C18.4027 8.25311 14.1008 12.5522 14.1008 17.8555C14.1008 23.1587 18.4027 27.4578 23.7094 27.4578Z" fill="white"/>
<path d="M23.7094 10.7625L18.3633 14.5859V16.243L23.7094 12.4187L29.0555 16.243V14.5859L23.7094 10.7625Z" fill="#E04F5F"/>
<path d="M19.2585 23.4961V16.7078L23.7093 13.5023L28.1609 16.7078V23.4961H19.2585Z" fill="#25B6D2"/>
</svg>
