<svg width="15" height="15" viewBox="0 0 15 15" fill="none" xmlns="http://www.w3.org/2000/svg">
<g clip-path="url(#clip0)">
<path d="M11.7764 4.86788C11.6586 4.27928 11.4449 3.74276 11.1412 3.27328C11.0664 3.15759 10.9119 3.12451 10.7963 3.1993C10.6806 3.27413 10.6475 3.42852 10.7223 3.54422C10.9918 3.9607 11.1818 4.439 11.2872 4.9657C11.3594 5.32664 11.396 5.69804 11.396 6.06964C11.396 7.29416 11.0077 8.45689 10.2732 9.43216C9.57779 10.3554 8.59529 11.0527 7.50018 11.4019C6.40506 11.0527 5.42253 10.3554 4.72717 9.43216C3.99261 8.45689 3.60434 7.29416 3.60434 6.06964C3.60434 5.69806 3.64096 5.32667 3.71317 4.96567C4.00181 3.52318 4.93995 2.45388 6.28711 2.03197C7.6633 1.60101 9.19632 1.94203 10.1926 2.90092C10.2918 2.99645 10.4498 2.99341 10.5452 2.89418C10.6408 2.79495 10.6378 2.63704 10.5385 2.5415C9.41285 1.45805 7.68557 1.0713 6.13802 1.55593C4.61159 2.03399 3.54949 3.24114 3.22403 4.86782C3.14534 5.26093 3.10547 5.66525 3.10547 6.06967C3.10547 7.40335 3.52846 8.66985 4.32867 9.73227C5.10255 10.7597 6.20314 11.5303 7.42775 11.9019C7.45137 11.909 7.47577 11.9126 7.50018 11.9126C7.52458 11.9126 7.54898 11.909 7.5726 11.9019C8.79721 11.5302 9.89783 10.7597 10.6717 9.7323C11.4719 8.66985 11.8948 7.40335 11.8948 6.06969C11.8949 5.66528 11.855 5.26096 11.7764 4.86788Z" fill="white"/>
<path d="M7.5002 3.14575C6.16033 3.14575 5.07031 4.23577 5.07031 5.57564C5.07031 6.06256 5.21384 6.53239 5.48542 6.93438C5.5625 7.04855 5.71763 7.07852 5.83171 7.00147C5.94588 6.92436 5.97588 6.76932 5.8988 6.65518C5.68317 6.33596 5.56915 5.96268 5.56915 5.57567C5.56915 4.51087 6.4354 3.64462 7.5002 3.64462C8.56499 3.64462 9.43124 4.51087 9.43124 5.57567C9.43124 6.64047 8.56496 7.50666 7.5002 7.50666C7.10735 7.50666 6.72939 7.38948 6.4071 7.16779C6.29363 7.08971 6.13833 7.11842 6.06025 7.23192C5.98218 7.34541 6.01086 7.50069 6.12438 7.57879C6.53021 7.85802 7.00593 8.00556 7.50023 8.00556C8.84009 8.00556 9.93011 6.91554 9.93011 5.57567C9.93008 4.2358 8.84003 3.14575 7.5002 3.14575Z" fill="white"/>
<path d="M14.9675 13.2776L12.4998 8.9268C12.4555 8.8487 12.3727 8.80042 12.2829 8.80042H11.7C11.5622 8.80042 11.4506 8.91209 11.4506 9.04985C11.4506 9.1876 11.5622 9.29928 11.7 9.29928H12.1376L14.3224 13.1513H0.67767L2.86246 9.29928H3.30003C3.43779 9.29928 3.54947 9.1876 3.54947 9.04985C3.54947 8.91209 3.43779 8.80042 3.30003 8.80042H2.71717C2.62738 8.80042 2.5445 8.84867 2.5002 8.9268L0.0324651 13.2776C-0.0113337 13.3548 -0.010777 13.4495 0.0339007 13.5262C0.0786077 13.6029 0.160668 13.6501 0.249438 13.6501H14.7506C14.8394 13.6501 14.9215 13.6029 14.9661 13.5262C15.0108 13.4495 15.0113 13.3548 14.9675 13.2776Z" fill="white"/>
</g>
<defs>
<clipPath id="clip0">
<rect width="15" height="15" fill="white"/>
</clipPath>
</defs>
</svg>
