<svg width="50" height="50" viewBox="0 0 50 50" fill="none" xmlns="http://www.w3.org/2000/svg">
<path d="M32.0366 34.9595H17.9663V45.5392H32.0366V34.9595Z" fill="#415E72"/>
<path d="M17.9663 36.7891H26.3366L17.9663 42.4437V36.7891Z" fill="#2C3E50"/>
<path d="M36.0861 47.5859H13.9158C13.0541 47.5836 12.3556 46.8852 12.3533 46.0234C12.3556 45.1617 13.0541 44.4633 13.9158 44.4609H36.0845C36.9462 44.4633 37.6447 45.1617 37.647 46.0234C37.647 46.8859 36.9486 47.5852 36.0861 47.5859Z" fill="#CFDCE5"/>
<path d="M46.875 36.7891H3.125C1.40156 36.7836 0.00546875 35.3875 0 33.6641V5.53906C0.00546875 3.81562 1.40156 2.41953 3.125 2.41406H46.875C48.5984 2.41953 49.9945 3.81562 50 5.53906V33.6641C49.9945 35.3875 48.5984 36.7836 46.875 36.7891Z" fill="#CFDCE5"/>
<path d="M47.8562 4.55615H2.14526V34.6468H47.8562V4.55615Z" fill="white"/>
<path d="M38.4129 16.1348L36.9629 17.2681L39.7398 20.821L41.1898 19.6877L38.4129 16.1348Z" fill="#E04F5F"/>
<path d="M38.9912 21.4076L36.2145 17.8546C34.9906 17.5024 33.9065 16.7776 33.1139 15.7809C32.3381 14.7708 31.8967 13.5444 31.851 12.2718L29.0743 8.71875C29.0743 8.71875 26.443 12.4891 30.5704 17.7676C34.6979 23.0461 38.9912 21.4076 38.9912 21.4076Z" fill="#E04F5F"/>
<path d="M31.2735 6.99999L29.8235 8.1333L32.6003 11.6862L34.0504 10.5529L31.2735 6.99999Z" fill="#E04F5F"/>
<path d="M24.3362 24.5961V23.2879C26.6144 22.082 27.4154 19.3777 26.125 17.2484C24.8346 15.1192 21.9421 14.3699 19.6643 15.5762C17.3865 16.7825 16.585 19.4856 17.8754 21.6153C18.2989 22.314 18.9168 22.892 19.6643 23.2875V24.5957C15.2464 24.7894 13 27.5816 13 29.4586V31H31V29.4586C31 27.5816 28.7536 24.7894 24.3362 24.5961Z" fill="#415E72"/>
</svg>
